<svg width="216" height="199" viewBox="0 0 216 199" fill="none" xmlns="http://www.w3.org/2000/svg">
<path d="M96.5231 150.45C98.0881 138.341 92.4032 118.202 90.3609 112.667C88.4594 107.515 86.3702 99.7499 86.3271 96.1173V96.09C86.3224 95.8515 86.3303 95.6129 86.3506 95.3752C86.3368 94.7249 86.1253 94.0942 85.7442 93.5667L84.6956 97.793L82.0077 92.43L82.9741 90.2232C82.6846 89.9302 82.3872 89.6334 82.0821 89.3404C79.9501 87.3352 77.7185 85.4384 75.3956 83.6572V82.876L53.8769 87.9538C53.8769 87.9538 44.0956 94.9846 51.0677 112.952C52.797 117.409 51.6506 121.694 48.7202 124.022C45.7897 126.35 41.1338 136.259 46.6779 142.669C52.2219 149.079 51.3455 156.942 49.0254 161.894C46.7052 166.847 42.6049 173.839 51.6506 182.87H64.198C64.198 182.87 68.2827 172.382 70.908 166.855C72.6334 163.222 75.11 155.571 75.8651 146.216C75.9981 146.415 76.1351 146.606 76.2564 146.805C77.3832 148.391 78.6039 149.833 79.6798 151.235C83.5923 156.313 81.5891 157.535 79.5468 168.031C77.5044 178.526 85.1769 182.479 85.1769 182.479L95.7406 182.088C97.7829 178.011 95.4041 159.117 96.5231 150.45Z" fill="black"/>
<path d="M53.4856 88.1062V80.7278H54.6593V86.6297L74.2453 82.0909L72.4221 76.7983L73.5293 76.4194L75.779 82.9385L53.4856 88.1062Z" fill="black"/>
<path d="M84.2731 81.7278L83.5376 82.5363L80.1846 86.2275L83.252 86.6689L82.0782 89.3406L80.7088 92.4654L85.0635 101.164L86.3233 96.1214V96.0941L88.1035 88.9226L88.346 87.9383L84.2731 81.7278ZM85.7442 93.5669L84.6957 97.7932L82.0078 92.4302L82.9742 90.2233L84.9304 85.7236L82.5242 85.3838L84.1088 83.6339L87.0745 88.1453L85.7442 93.5669Z" fill="black"/>
<path d="M56.4239 183.506C53.0278 180.538 53.4465 169.656 56.33 165.539C58.7949 162.023 60.5711 148.602 54.8628 143.665C52.977 142.036 51.9558 140.056 51.8306 137.806C51.5724 133.185 55.0115 128.432 57.9458 125.264C62.3318 120.518 59.0374 111.902 59.0022 111.816L60.0977 111.386C60.2464 111.777 63.6972 120.76 58.8066 126.061C56.5334 128.522 52.754 133.31 53.0004 137.74C53.1291 139.719 54.0828 141.554 55.6296 142.798C61.8896 148.22 59.996 162.371 57.2925 166.234C54.7572 169.847 54.2798 180.096 57.1986 182.639L56.4239 183.506Z" fill="white"/>
<path d="M64.7732 182.932L63.7168 182.417C71.933 165.621 74.7305 151.212 75.6421 142.091C76.8159 130.42 75.4269 122.28 73.8815 118.858C70.3172 110.945 72.9542 100.918 73.0677 100.5L74.2023 100.805C74.1749 100.902 71.5614 110.855 74.9535 118.382C78.2948 125.787 80.2002 151.317 64.7732 182.932Z" fill="white"/>
<path d="M61.5806 194.197L66.2756 182.088H49.1506L49.9331 197.322L49.9918 198.494H52.1437L52.535 197.322L52.9575 196.064L54.9998 198.103H66.3969V194.197H61.5806ZM52.445 193.892L51.3025 197.322H51.1069L50.387 183.26H64.562L59.867 195.369H65.2232V196.931H55.4889L52.445 193.892Z" fill="black"/>
<path d="M93.6632 193.807L98.3582 181.698H81.2332L82.047 197.322L82.0861 198.103H84.238L84.5001 197.322L85.0518 195.674L87.0941 197.713H98.4795V193.807H93.6632ZM84.5275 193.502L83.385 196.931H83.1894L82.4695 182.87H96.6445L91.9495 194.978H97.3057V196.541H87.5714L84.5275 193.502Z" fill="black"/>
<path d="M215.659 197.322H35.2925V198.494H215.659V197.322Z" fill="black"/>
<path d="M19.8383 198.494C21.0121 198.884 45.3869 198.494 45.3869 198.494C45.3869 198.494 46.4433 191.463 39.4008 189.51C32.3583 187.557 33.5321 187.948 33.1408 178.183C32.7496 168.418 30.7933 153.184 24.9246 160.996C19.0558 168.808 22.1858 178.183 16.7083 182.87C11.2308 187.557 8.8833 189.901 8.8833 198.494H19.8383Z" fill="black"/>
<path d="M130.867 24.001L107.6 40.6093L90.9597 17.3764L114.231 0.768066L130.867 24.001Z" fill="#F4A019"/>
<path d="M82.3835 48.1479C78.7261 44.3967 73.5783 42.4777 68.3533 42.9177L62.2381 43.4255L62.3359 44.5973L68.4472 44.0856C73.324 43.6705 78.1301 45.4611 81.5423 48.9642L107.635 75.65L91.7031 91.9263L82.6613 79.2865L90.9793 72.9588L75.3567 58.5612L72.6179 49.6985L71.4989 50.0423L78.9327 74.2009L49.5889 81.4465C49.812 75.7086 50.571 55.827 50.3519 54.8232L49.2016 55.0615C49.2681 55.4989 49.2016 59.0026 49.0451 63.6547L25.0341 62.1743L5.94501 36.8556L21.7319 29.1647L31.8223 48.5345L53.1141 46.6597L53.0124 45.4879L32.5031 47.2963L22.2484 27.6101L4.14917 36.4259L24.2594 63.1117L24.4237 63.3305L49.0021 64.8382C48.8299 70.248 48.5834 76.9116 48.3761 82.1808L48.3448 82.962L80.4273 75.0446L76.0453 60.7916L89.16 72.8767L81.0454 79.0482L91.5662 93.7504L109.278 75.65L82.3835 48.1479Z" fill="black"/>
<path d="M10.233 34.3363L3.20615 27.4383L8.22197 28.9851L0.396973 21.5129L9.8887 21.2903L17.8115 30.8405L16.9077 31.5865L9.34877 22.4777L3.2531 22.6183L12.6274 31.5709L7.47077 29.9811L11.0585 33.5004L10.233 34.3363Z" fill="black"/>
<path d="M73.8308 62.5649C69.1358 59.0495 73.4395 57.0965 77.352 52.4093C81.2645 47.7221 74.222 48.1127 70.7008 46.5503C67.1795 44.9879 70.3095 44.5973 71.4833 40.6913C72.3792 37.7071 68.2594 34.2738 66.2601 32.8129L68.1537 32.8715C68.1537 32.8715 71.4833 24.9775 59.2215 24.9931C59.2215 24.9931 55.6768 24.1221 55.039 26.8797V26.9305C54.4365 29.7506 51.1031 28.8835 50.0232 30.3912C48.9434 31.8989 49.4363 32.6918 49.898 34.512C50.3597 36.3322 48.826 35.7698 47.5036 36.7619C46.1811 37.754 44.4635 39.1055 46.7524 40.2226L53.7049 41.6874L52.4137 44.2067C52.0952 44.8307 52.0485 45.5582 52.2847 46.2177C52.521 46.8771 53.0192 47.4101 53.6618 47.6909L59.0493 50.0345C59.3717 50.1742 59.7191 50.2473 60.0705 50.2493C60.3364 50.2501 60.6006 50.2079 60.853 50.1243C59.6362 51.1125 56.8779 52.6085 59.7614 54.7646C62.8914 57.1082 64.8477 55.1552 62.5002 57.1082C60.1527 59.0612 59.7614 63.3578 62.8914 66.092C66.0214 68.8262 64.4564 67.6544 62.1089 69.998C59.7614 72.3416 63.6739 76.2476 63.6739 76.2476C63.6739 76.2476 73.0639 74.2946 77.7589 71.951C82.4539 69.6074 78.5258 66.0803 73.8308 62.5649ZM60.1879 40.2499C60.1047 39.8386 59.8873 39.4663 59.5697 39.1914C58.0595 37.8556 56.7997 36.7853 57.8639 35.7854C58.9281 34.7854 58.709 33.4887 57.9656 32.434C57.9582 32.4242 57.9516 32.4137 57.946 32.4028C57.7804 32.1453 57.8203 31.8069 58.0413 31.5948C58.2622 31.3828 58.6026 31.3564 58.8537 31.5318L60.4187 32.6371L64.7577 32.77C65.0668 35.0198 65.1489 38.3985 63.2748 40.0273C62.8035 40.45 62.176 40.6555 61.5455 40.5937C61.0774 40.5526 60.619 40.4366 60.1879 40.2499ZM59.5188 48.9486L54.1313 46.605C53.784 46.4545 53.5145 46.1672 53.387 45.8112C53.2595 45.4552 53.2854 45.0625 53.4584 44.7262L54.8864 41.9412L59.5814 42.9295C59.8455 42.4797 60.0395 41.9923 60.1566 41.4842C60.4699 41.5924 60.7919 41.6734 61.1191 41.7264L61.4321 47.6206C61.4563 48.0941 61.2337 48.5465 60.8434 48.8169C60.4532 49.0872 59.9508 49.137 59.5149 48.9486H59.5188Z" fill="black"/>
<path d="M175.344 128.576H173.991V126.623H164.992V116.858H164.209V115.296H124.693V116.858H124.302V126.623H112.564V128.686C108.285 129.37 105.136 133.054 105.131 137.38V186.565C105.135 191.425 109.081 195.365 113.949 195.369H175.344C180.213 195.365 184.159 191.425 184.163 186.565V137.38C184.159 132.52 180.213 128.581 175.344 128.576ZM172.817 127.795V130.139H156.384V127.795H172.817ZM125.476 118.225H163.818V126.623H155.211V128.576H131.344V126.623H125.476V118.225ZM113.738 127.795H130.171V130.139H113.738V127.795ZM113.949 194.197C109.73 194.191 106.311 190.777 106.304 186.565V137.38C106.31 133.701 108.941 130.548 112.564 129.877V131.31H118.042V194.197H113.949ZM119.216 194.197V131.31H126.258V194.197H119.216ZM127.432 194.197V131.31H131.344V129.748H155.211V131.31H159.514V194.197H127.432ZM160.688 194.197V131.31H167.731V194.197H160.688ZM182.989 186.565C182.983 190.777 179.564 194.191 175.344 194.197H168.904V131.31H173.991V129.748H175.344C179.564 129.755 182.983 133.168 182.989 137.38V186.565Z" fill="black"/>
<path d="M143.864 143.419H130.953V151.622H143.864V143.419ZM142.691 150.45H132.127V144.591H142.691V150.45Z" fill="black"/>
<path d="M143.865 160.605C139.983 160.605 136.822 163.933 136.822 168.027C136.822 172.12 139.983 175.448 143.865 175.448C147.746 175.448 150.907 172.12 150.907 168.027C150.907 163.933 147.746 160.605 143.865 160.605ZM143.865 174.276C140.629 174.276 137.996 171.472 137.996 168.027C137.996 164.582 140.629 161.777 143.865 161.777C147.1 161.777 149.733 164.582 149.733 168.027C149.733 171.472 147.1 174.276 143.865 174.276Z" fill="black"/>
<path d="M146.055 68.5254L142.941 81.134L136.442 79.5365L134.365 87.9539L121.735 84.8447L124.85 72.2361L131.344 73.8337L133.426 65.4163L146.055 68.5254Z" fill="#F4A019"/>
<path d="M118.961 37.8556L110.569 25.0986L98.7806 32.8286L91.8516 37.3713L104.055 55.9248L122.768 43.656L118.961 37.8556ZM93.4753 37.7072L99.4614 33.8012L110.217 26.7235L117.991 38.5392L121.121 43.3123L104.368 54.296L93.4753 37.7072Z" fill="black"/>
</svg>
